<mxfile host="app.diagrams.net" modified="2023-08-04T16:06:35.658Z" agent="Mozilla/5.0 (Macintosh; Intel Mac OS X 10_15_7) AppleWebKit/537.36 (KHTML, like Gecko) Chrome/115.0.0.0 Safari/537.36" etag="ZvKnDl498SsNC_DJQthI" version="21.6.6" type="device">
  <diagram name="Page-1" id="Z5Kl5tXFPuSqpEdzZqg3">
    <mxGraphModel dx="1272" dy="856" grid="1" gridSize="10" guides="1" tooltips="1" connect="1" arrows="1" fold="1" page="1" pageScale="1" pageWidth="827" pageHeight="1169" math="0" shadow="0">
      <root>
        <mxCell id="0" />
        <mxCell id="1" parent="0" />
        <mxCell id="vAaktajzuPDgQjhJXwkO-24" value="" style="rounded=1;whiteSpace=wrap;html=1;arcSize=8;fillColor=#f5f5f5;strokeColor=#666666;fontColor=#333333;" vertex="1" parent="1">
          <mxGeometry x="545" y="720" width="85" height="30" as="geometry" />
        </mxCell>
        <mxCell id="vAaktajzuPDgQjhJXwkO-4" value="" style="rounded=0;whiteSpace=wrap;html=1;fillColor=#000000;" vertex="1" parent="1">
          <mxGeometry x="30" y="100" width="774" height="550" as="geometry" />
        </mxCell>
        <mxCell id="vAaktajzuPDgQjhJXwkO-5" value="&lt;font color=&quot;#ffffff&quot; style=&quot;font-size: 37px;&quot;&gt;Plan &lt;/font&gt;&lt;font color=&quot;#a9c4eb&quot; style=&quot;font-size: 37px;&quot;&gt;Pro&lt;/font&gt;&lt;font color=&quot;#ffffff&quot; style=&quot;font-size: 37px;&quot;&gt;&amp;nbsp;&lt;/font&gt;" style="text;html=1;strokeColor=none;fillColor=none;align=center;verticalAlign=top;whiteSpace=wrap;rounded=0;fontStyle=1;fontSize=37;fontFamily=Georgia;" vertex="1" parent="1">
          <mxGeometry x="315" y="140" width="230" height="30" as="geometry" />
        </mxCell>
        <mxCell id="vAaktajzuPDgQjhJXwkO-7" value="" style="line;strokeWidth=2;html=1;fontColor=#E6E6E6;spacing=3;strokeColor=#FFFFFF;" vertex="1" parent="1">
          <mxGeometry x="260" y="210" width="330" height="10" as="geometry" />
        </mxCell>
        <mxCell id="vAaktajzuPDgQjhJXwkO-10" value="" style="rounded=0;whiteSpace=wrap;html=1;fillColor=#1A1A1A;" vertex="1" parent="1">
          <mxGeometry x="295" y="260" width="260" height="330" as="geometry" />
        </mxCell>
        <mxCell id="vAaktajzuPDgQjhJXwkO-11" value="&lt;font color=&quot;#ffffff&quot;&gt;&lt;span style=&quot;font-size: 19px;&quot;&gt;Login or Register:&lt;/span&gt;&lt;/font&gt;" style="text;html=1;strokeColor=none;fillColor=none;align=center;verticalAlign=middle;whiteSpace=wrap;rounded=0;fontStyle=1" vertex="1" parent="1">
          <mxGeometry x="337.5" y="280" width="185" height="30" as="geometry" />
        </mxCell>
        <mxCell id="vAaktajzuPDgQjhJXwkO-12" value="&lt;font color=&quot;#ffffff&quot;&gt;Username:&lt;/font&gt;" style="text;html=1;strokeColor=none;fillColor=none;align=center;verticalAlign=middle;whiteSpace=wrap;rounded=0;" vertex="1" parent="1">
          <mxGeometry x="315" y="330" width="60" height="30" as="geometry" />
        </mxCell>
        <mxCell id="vAaktajzuPDgQjhJXwkO-13" value="" style="rounded=0;whiteSpace=wrap;html=1;fillColor=#000000;" vertex="1" parent="1">
          <mxGeometry x="315" y="360" width="215" height="30" as="geometry" />
        </mxCell>
        <mxCell id="vAaktajzuPDgQjhJXwkO-14" value="&lt;font color=&quot;#ffffff&quot;&gt;Password:&lt;/font&gt;" style="text;html=1;strokeColor=none;fillColor=none;align=center;verticalAlign=middle;whiteSpace=wrap;rounded=0;" vertex="1" parent="1">
          <mxGeometry x="315" y="400" width="60" height="30" as="geometry" />
        </mxCell>
        <mxCell id="vAaktajzuPDgQjhJXwkO-15" value="" style="rounded=0;whiteSpace=wrap;html=1;fillColor=#000000;" vertex="1" parent="1">
          <mxGeometry x="315" y="430" width="215" height="30" as="geometry" />
        </mxCell>
        <mxCell id="vAaktajzuPDgQjhJXwkO-18" value="" style="shape=sumEllipse;perimeter=ellipsePerimeter;whiteSpace=wrap;html=1;backgroundOutline=1;fillColor=#4D4D4D;" vertex="1" parent="1">
          <mxGeometry x="350" y="487.5" width="55" height="50" as="geometry" />
        </mxCell>
        <mxCell id="vAaktajzuPDgQjhJXwkO-19" value="" style="shape=sumEllipse;perimeter=ellipsePerimeter;whiteSpace=wrap;html=1;backgroundOutline=1;fillColor=#4D4D4D;" vertex="1" parent="1">
          <mxGeometry x="430" y="487.5" width="55" height="50" as="geometry" />
        </mxCell>
        <mxCell id="vAaktajzuPDgQjhJXwkO-20" value="" style="rounded=0;whiteSpace=wrap;html=1;fillColor=#000000;" vertex="1" parent="1">
          <mxGeometry x="30" y="679" width="780" height="761" as="geometry" />
        </mxCell>
        <mxCell id="vAaktajzuPDgQjhJXwkO-21" value="&lt;font color=&quot;#ffffff&quot; style=&quot;font-size: 37px;&quot;&gt;Plan &lt;/font&gt;&lt;font color=&quot;#a9c4eb&quot; style=&quot;font-size: 37px;&quot;&gt;Pro&lt;/font&gt;&lt;font color=&quot;#ffffff&quot; style=&quot;font-size: 37px;&quot;&gt;&amp;nbsp;&lt;/font&gt;" style="text;html=1;strokeColor=none;fillColor=none;align=center;verticalAlign=top;whiteSpace=wrap;rounded=0;fontStyle=1;fontSize=37;fontFamily=Georgia;" vertex="1" parent="1">
          <mxGeometry x="299" y="710" width="230" height="30" as="geometry" />
        </mxCell>
        <mxCell id="vAaktajzuPDgQjhJXwkO-22" value="" style="line;strokeWidth=2;html=1;fontColor=#E6E6E6;spacing=3;strokeColor=#FFFFFF;" vertex="1" parent="1">
          <mxGeometry x="252" y="780" width="330" height="10" as="geometry" />
        </mxCell>
        <mxCell id="vAaktajzuPDgQjhJXwkO-23" value="&lt;font&gt;&lt;b&gt;&lt;font style=&quot;font-size: 14px;&quot;&gt;Logout&lt;/font&gt;&lt;/b&gt;&lt;br&gt;&lt;/font&gt;" style="text;html=1;strokeColor=none;fillColor=none;align=center;verticalAlign=middle;whiteSpace=wrap;rounded=0;fontColor=#FFFFFF;" vertex="1" parent="1">
          <mxGeometry x="557.5" y="720" width="60" height="30" as="geometry" />
        </mxCell>
        <mxCell id="vAaktajzuPDgQjhJXwkO-25" value="" style="rounded=0;whiteSpace=wrap;html=1;strokeColor=#FFFFFF;fillColor=none;" vertex="1" parent="1">
          <mxGeometry x="537.5" y="712.5" width="100" height="45" as="geometry" />
        </mxCell>
        <mxCell id="vAaktajzuPDgQjhJXwkO-33" style="edgeStyle=orthogonalEdgeStyle;rounded=0;orthogonalLoop=1;jettySize=auto;html=1;exitX=0.5;exitY=1;exitDx=0;exitDy=0;entryX=1;entryY=0.25;entryDx=0;entryDy=0;" edge="1" parent="1" source="vAaktajzuPDgQjhJXwkO-26" target="vAaktajzuPDgQjhJXwkO-31">
          <mxGeometry relative="1" as="geometry" />
        </mxCell>
        <mxCell id="vAaktajzuPDgQjhJXwkO-26" value="" style="rounded=1;whiteSpace=wrap;html=1;fillColor=none;strokeColor=#FFFFFF;" vertex="1" parent="1">
          <mxGeometry x="298.5" y="930" width="220" height="40" as="geometry" />
        </mxCell>
        <mxCell id="vAaktajzuPDgQjhJXwkO-27" value="" style="rounded=1;whiteSpace=wrap;html=1;fillColor=none;strokeColor=#FFFFFF;" vertex="1" parent="1">
          <mxGeometry x="299" y="1010" width="220" height="40" as="geometry" />
        </mxCell>
        <mxCell id="vAaktajzuPDgQjhJXwkO-29" value="&lt;font color=&quot;#ffffff&quot;&gt;&lt;b&gt;Note Title:&lt;/b&gt;&lt;/font&gt;" style="text;html=1;strokeColor=none;fillColor=none;align=center;verticalAlign=middle;whiteSpace=wrap;rounded=0;" vertex="1" parent="1">
          <mxGeometry x="297.5" y="900" width="77.5" height="30" as="geometry" />
        </mxCell>
        <mxCell id="vAaktajzuPDgQjhJXwkO-30" value="&lt;font color=&quot;#ffffff&quot;&gt;&lt;b&gt;Date:&lt;/b&gt;&lt;/font&gt;" style="text;html=1;strokeColor=none;fillColor=none;align=center;verticalAlign=middle;whiteSpace=wrap;rounded=0;" vertex="1" parent="1">
          <mxGeometry x="298.5" y="820" width="60" height="30" as="geometry" />
        </mxCell>
        <mxCell id="vAaktajzuPDgQjhJXwkO-31" value="&lt;font color=&quot;#ffffff&quot;&gt;&lt;b&gt;Note Description:&lt;/b&gt;&lt;/font&gt;" style="text;html=1;strokeColor=none;fillColor=none;align=center;verticalAlign=middle;whiteSpace=wrap;rounded=0;" vertex="1" parent="1">
          <mxGeometry x="306" y="980" width="107.5" height="30" as="geometry" />
        </mxCell>
        <mxCell id="vAaktajzuPDgQjhJXwkO-32" value="" style="rounded=1;whiteSpace=wrap;html=1;fillColor=none;strokeColor=#FFFFFF;" vertex="1" parent="1">
          <mxGeometry x="299" y="850" width="221" height="40" as="geometry" />
        </mxCell>
        <mxCell id="vAaktajzuPDgQjhJXwkO-34" value="" style="rounded=1;whiteSpace=wrap;html=1;fillColor=none;strokeColor=#FFFFFF;" vertex="1" parent="1">
          <mxGeometry x="422" y="1070" width="97" height="30" as="geometry" />
        </mxCell>
        <mxCell id="vAaktajzuPDgQjhJXwkO-35" value="&lt;font color=&quot;#ffffff&quot;&gt;&lt;b&gt;Add Note:&lt;/b&gt;&lt;/font&gt;" style="text;html=1;strokeColor=none;fillColor=none;align=center;verticalAlign=middle;whiteSpace=wrap;rounded=0;" vertex="1" parent="1">
          <mxGeometry x="430" y="1070" width="77.5" height="30" as="geometry" />
        </mxCell>
        <mxCell id="vAaktajzuPDgQjhJXwkO-36" value="&lt;font style=&quot;font-size: 16px;&quot;&gt;Cleaniing-List:&lt;/font&gt;" style="text;html=1;strokeColor=none;fillColor=none;align=left;verticalAlign=middle;whiteSpace=wrap;rounded=0;fontStyle=1;fontColor=#FFFFFF;" vertex="1" parent="1">
          <mxGeometry x="298.5" y="1180" width="133.75" height="30" as="geometry" />
        </mxCell>
        <mxCell id="vAaktajzuPDgQjhJXwkO-50" style="edgeStyle=orthogonalEdgeStyle;rounded=0;orthogonalLoop=1;jettySize=auto;html=1;exitX=0.5;exitY=0;exitDx=0;exitDy=0;" edge="1" parent="1" source="vAaktajzuPDgQjhJXwkO-37" target="vAaktajzuPDgQjhJXwkO-42">
          <mxGeometry relative="1" as="geometry" />
        </mxCell>
        <mxCell id="vAaktajzuPDgQjhJXwkO-37" value="&lt;span style=&quot;font-weight: 400; font-size: 14px;&quot;&gt;- Wash the dishes&amp;nbsp;&lt;br style=&quot;font-size: 14px;&quot;&gt;- Clean and Vacuum rooms&lt;br style=&quot;font-size: 14px;&quot;&gt;&lt;/span&gt;" style="text;html=1;strokeColor=none;fillColor=none;align=left;verticalAlign=middle;whiteSpace=wrap;rounded=0;fontStyle=1;fontColor=#FFFFFF;fontSize=14;" vertex="1" parent="1">
          <mxGeometry x="299" y="1220" width="251" height="30" as="geometry" />
        </mxCell>
        <mxCell id="vAaktajzuPDgQjhJXwkO-38" value="&lt;span style=&quot;font-weight: 400; font-size: 14px;&quot;&gt;- Run a 5k&lt;br&gt;- Train Legs&amp;nbsp;&lt;br&gt;- Take a cold plundge&amp;nbsp;&lt;br style=&quot;font-size: 14px;&quot;&gt;&lt;/span&gt;" style="text;html=1;strokeColor=none;fillColor=none;align=left;verticalAlign=middle;whiteSpace=wrap;rounded=0;fontStyle=1;fontColor=#FFFFFF;fontSize=14;" vertex="1" parent="1">
          <mxGeometry x="295" y="1350" width="251" height="30" as="geometry" />
        </mxCell>
        <mxCell id="vAaktajzuPDgQjhJXwkO-39" value="&lt;span style=&quot;font-size: 16px;&quot;&gt;Workout&amp;nbsp;&lt;/span&gt;" style="text;html=1;strokeColor=none;fillColor=none;align=left;verticalAlign=middle;whiteSpace=wrap;rounded=0;fontStyle=1;fontColor=#FFFFFF;" vertex="1" parent="1">
          <mxGeometry x="299" y="1300" width="133.75" height="30" as="geometry" />
        </mxCell>
        <mxCell id="vAaktajzuPDgQjhJXwkO-40" value="&lt;span style=&quot;font-size: 13px;&quot;&gt;27-03-2024&lt;/span&gt;" style="text;html=1;strokeColor=none;fillColor=none;align=left;verticalAlign=middle;whiteSpace=wrap;rounded=0;fontStyle=1;fontColor=#FFFFFF;" vertex="1" parent="1">
          <mxGeometry x="299" y="1160" width="133.75" height="20" as="geometry" />
        </mxCell>
        <mxCell id="vAaktajzuPDgQjhJXwkO-41" value="&lt;span style=&quot;font-size: 13px;&quot;&gt;12-05-2024&lt;/span&gt;" style="text;html=1;strokeColor=none;fillColor=none;align=left;verticalAlign=middle;whiteSpace=wrap;rounded=0;fontStyle=1;fontColor=#FFFFFF;" vertex="1" parent="1">
          <mxGeometry x="299" y="1280" width="133.75" height="20" as="geometry" />
        </mxCell>
        <mxCell id="vAaktajzuPDgQjhJXwkO-43" style="edgeStyle=orthogonalEdgeStyle;rounded=0;orthogonalLoop=1;jettySize=auto;html=1;" edge="1" parent="1" source="vAaktajzuPDgQjhJXwkO-42">
          <mxGeometry relative="1" as="geometry">
            <mxPoint x="417" y="2090" as="targetPoint" />
          </mxGeometry>
        </mxCell>
        <mxCell id="vAaktajzuPDgQjhJXwkO-42" value="" style="rounded=0;whiteSpace=wrap;html=1;fillColor=#000000;" vertex="1" parent="1">
          <mxGeometry x="30" y="1470" width="780" height="610" as="geometry" />
        </mxCell>
        <mxCell id="vAaktajzuPDgQjhJXwkO-44" value="" style="endArrow=classic;html=1;rounded=0;strokeColor=#FFFFFF;exitX=0;exitY=1;exitDx=0;exitDy=0;entryX=0.315;entryY=0.8;entryDx=0;entryDy=0;entryPerimeter=0;" edge="1" parent="1" source="vAaktajzuPDgQjhJXwkO-18" target="vAaktajzuPDgQjhJXwkO-4">
          <mxGeometry width="50" height="50" relative="1" as="geometry">
            <mxPoint x="240" y="610" as="sourcePoint" />
            <mxPoint x="290" y="560" as="targetPoint" />
          </mxGeometry>
        </mxCell>
        <mxCell id="vAaktajzuPDgQjhJXwkO-45" value="Facebook and Google icons&amp;nbsp;" style="text;html=1;strokeColor=none;fillColor=none;align=center;verticalAlign=middle;whiteSpace=wrap;rounded=0;fontColor=#FFFFFF;" vertex="1" parent="1">
          <mxGeometry x="90" y="502" width="190" height="82.5" as="geometry" />
        </mxCell>
        <mxCell id="vAaktajzuPDgQjhJXwkO-46" value="" style="rounded=0;whiteSpace=wrap;html=1;fillColor=none;strokeColor=#E6E6E6;" vertex="1" parent="1">
          <mxGeometry x="278.75" y="1655" width="302.5" height="385" as="geometry" />
        </mxCell>
        <mxCell id="vAaktajzuPDgQjhJXwkO-47" value="" style="rounded=0;whiteSpace=wrap;html=1;strokeColor=#FFFFFF;fillColor=none;" vertex="1" parent="1">
          <mxGeometry x="545" y="1530" width="100" height="45" as="geometry" />
        </mxCell>
        <mxCell id="vAaktajzuPDgQjhJXwkO-48" value="&lt;font&gt;&lt;b&gt;&lt;font style=&quot;font-size: 14px;&quot;&gt;Logout&lt;/font&gt;&lt;/b&gt;&lt;br&gt;&lt;/font&gt;" style="text;html=1;strokeColor=none;fillColor=none;align=center;verticalAlign=middle;whiteSpace=wrap;rounded=0;fontColor=#FFFFFF;" vertex="1" parent="1">
          <mxGeometry x="565" y="1537.5" width="60" height="30" as="geometry" />
        </mxCell>
        <mxCell id="vAaktajzuPDgQjhJXwkO-49" value="&lt;font color=&quot;#ffffff&quot; style=&quot;font-size: 37px;&quot;&gt;Plan &lt;/font&gt;&lt;font color=&quot;#a9c4eb&quot; style=&quot;font-size: 37px;&quot;&gt;Pro&lt;/font&gt;&lt;font color=&quot;#ffffff&quot; style=&quot;font-size: 37px;&quot;&gt;&amp;nbsp;&lt;/font&gt;" style="text;html=1;strokeColor=none;fillColor=none;align=center;verticalAlign=top;whiteSpace=wrap;rounded=0;fontStyle=1;fontSize=37;fontFamily=Georgia;" vertex="1" parent="1">
          <mxGeometry x="305.5" y="1537.5" width="230" height="30" as="geometry" />
        </mxCell>
        <mxCell id="vAaktajzuPDgQjhJXwkO-51" style="edgeStyle=orthogonalEdgeStyle;rounded=0;orthogonalLoop=1;jettySize=auto;html=1;exitX=0.5;exitY=1;exitDx=0;exitDy=0;entryX=0.382;entryY=-0.161;entryDx=0;entryDy=0;entryPerimeter=0;" edge="1" parent="1" source="vAaktajzuPDgQjhJXwkO-49" target="vAaktajzuPDgQjhJXwkO-49">
          <mxGeometry relative="1" as="geometry" />
        </mxCell>
        <mxCell id="vAaktajzuPDgQjhJXwkO-52" style="edgeStyle=orthogonalEdgeStyle;rounded=0;orthogonalLoop=1;jettySize=auto;html=1;exitX=0.5;exitY=1;exitDx=0;exitDy=0;" edge="1" parent="1" source="vAaktajzuPDgQjhJXwkO-49" target="vAaktajzuPDgQjhJXwkO-49">
          <mxGeometry relative="1" as="geometry" />
        </mxCell>
        <mxCell id="vAaktajzuPDgQjhJXwkO-53" value="" style="line;strokeWidth=2;html=1;fontColor=#E6E6E6;spacing=3;strokeColor=#FFFFFF;" vertex="1" parent="1">
          <mxGeometry x="259.5" y="1590" width="330" height="40" as="geometry" />
        </mxCell>
        <mxCell id="vAaktajzuPDgQjhJXwkO-54" value="&lt;font color=&quot;#ffffff&quot;&gt;&lt;b&gt;Edit&lt;/b&gt;&lt;/font&gt;" style="text;html=1;strokeColor=none;fillColor=none;align=center;verticalAlign=middle;whiteSpace=wrap;rounded=0;" vertex="1" parent="1">
          <mxGeometry x="507.5" y="1230" width="77.5" height="30" as="geometry" />
        </mxCell>
        <mxCell id="vAaktajzuPDgQjhJXwkO-55" value="&lt;font color=&quot;#ffffff&quot;&gt;&lt;b&gt;Delete&lt;/b&gt;&lt;/font&gt;" style="text;html=1;strokeColor=none;fillColor=none;align=center;verticalAlign=middle;whiteSpace=wrap;rounded=0;" vertex="1" parent="1">
          <mxGeometry x="617.5" y="1230" width="77.5" height="30" as="geometry" />
        </mxCell>
        <mxCell id="vAaktajzuPDgQjhJXwkO-56" value="" style="rounded=1;whiteSpace=wrap;html=1;fillColor=none;strokeColor=#FFFFFF;" vertex="1" parent="1">
          <mxGeometry x="497.75" y="1230" width="97" height="30" as="geometry" />
        </mxCell>
        <mxCell id="vAaktajzuPDgQjhJXwkO-57" value="" style="rounded=1;whiteSpace=wrap;html=1;fillColor=none;strokeColor=#FFFFFF;" vertex="1" parent="1">
          <mxGeometry x="607.75" y="1230" width="97" height="30" as="geometry" />
        </mxCell>
        <mxCell id="vAaktajzuPDgQjhJXwkO-58" value="" style="rounded=1;whiteSpace=wrap;html=1;fillColor=none;strokeColor=#FFFFFF;" vertex="1" parent="1">
          <mxGeometry x="497.75" y="1360" width="97" height="30" as="geometry" />
        </mxCell>
        <mxCell id="vAaktajzuPDgQjhJXwkO-59" value="" style="rounded=1;whiteSpace=wrap;html=1;fillColor=none;strokeColor=#FFFFFF;" vertex="1" parent="1">
          <mxGeometry x="607.75" y="1360" width="97" height="30" as="geometry" />
        </mxCell>
        <mxCell id="vAaktajzuPDgQjhJXwkO-60" value="&lt;b&gt;Edit&lt;/b&gt;" style="text;html=1;strokeColor=none;fillColor=none;align=center;verticalAlign=middle;whiteSpace=wrap;rounded=0;fontColor=#FFFFFF;" vertex="1" parent="1">
          <mxGeometry x="516.25" y="1360" width="60" height="30" as="geometry" />
        </mxCell>
        <mxCell id="vAaktajzuPDgQjhJXwkO-61" value="&lt;b&gt;Delete&lt;/b&gt;" style="text;html=1;strokeColor=none;fillColor=none;align=center;verticalAlign=middle;whiteSpace=wrap;rounded=0;fontColor=#FFFFFF;" vertex="1" parent="1">
          <mxGeometry x="626.25" y="1360" width="60" height="30" as="geometry" />
        </mxCell>
        <mxCell id="vAaktajzuPDgQjhJXwkO-62" value="&lt;b&gt;Users:&lt;/b&gt;" style="text;html=1;strokeColor=none;fillColor=none;align=center;verticalAlign=middle;whiteSpace=wrap;rounded=0;fontColor=#FFFFFF;" vertex="1" parent="1">
          <mxGeometry x="290" y="1670" width="60" height="30" as="geometry" />
        </mxCell>
        <mxCell id="vAaktajzuPDgQjhJXwkO-63" style="edgeStyle=orthogonalEdgeStyle;rounded=0;orthogonalLoop=1;jettySize=auto;html=1;exitX=0.5;exitY=1;exitDx=0;exitDy=0;entryX=0.25;entryY=1;entryDx=0;entryDy=0;" edge="1" parent="1" source="vAaktajzuPDgQjhJXwkO-62" target="vAaktajzuPDgQjhJXwkO-62">
          <mxGeometry relative="1" as="geometry" />
        </mxCell>
        <mxCell id="vAaktajzuPDgQjhJXwkO-64" value="&lt;b&gt;&lt;font style=&quot;font-size: 16px;&quot;&gt;Edit&lt;/font&gt;&lt;/b&gt;" style="text;html=1;strokeColor=none;fillColor=none;align=center;verticalAlign=middle;whiteSpace=wrap;rounded=0;fontColor=#FFFFFF;" vertex="1" parent="1">
          <mxGeometry x="440.5" y="1710" width="60" height="30" as="geometry" />
        </mxCell>
        <mxCell id="vAaktajzuPDgQjhJXwkO-65" value="&lt;b&gt;&lt;font style=&quot;font-size: 17px;&quot;&gt;Delete&lt;/font&gt;&lt;/b&gt;" style="text;html=1;strokeColor=none;fillColor=none;align=center;verticalAlign=middle;whiteSpace=wrap;rounded=0;fontColor=#FFFFFF;" vertex="1" parent="1">
          <mxGeometry x="505" y="1710" width="60" height="30" as="geometry" />
        </mxCell>
        <mxCell id="vAaktajzuPDgQjhJXwkO-66" value="&lt;b&gt;&lt;font style=&quot;font-size: 17px;&quot;&gt;UserName&amp;nbsp;&lt;/font&gt;&lt;/b&gt;" style="text;html=1;strokeColor=none;fillColor=none;align=center;verticalAlign=middle;whiteSpace=wrap;rounded=0;fontColor=#FFFFFF;" vertex="1" parent="1">
          <mxGeometry x="282.88" y="1710" width="165" height="30" as="geometry" />
        </mxCell>
        <mxCell id="vAaktajzuPDgQjhJXwkO-67" value="&lt;b&gt;Note Title:&lt;/b&gt;" style="text;html=1;strokeColor=none;fillColor=none;align=center;verticalAlign=middle;whiteSpace=wrap;rounded=0;fontColor=#FFFFFF;" vertex="1" parent="1">
          <mxGeometry x="283.37" y="1810" width="165" height="30" as="geometry" />
        </mxCell>
        <mxCell id="vAaktajzuPDgQjhJXwkO-68" value="&lt;b&gt;Note Description&lt;/b&gt;" style="text;html=1;strokeColor=none;fillColor=none;align=center;verticalAlign=middle;whiteSpace=wrap;rounded=0;fontColor=#FFFFFF;" vertex="1" parent="1">
          <mxGeometry x="297.5" y="1850" width="165" height="30" as="geometry" />
        </mxCell>
        <mxCell id="vAaktajzuPDgQjhJXwkO-69" value="&lt;b&gt;Date:&lt;/b&gt;" style="text;html=1;strokeColor=none;fillColor=none;align=center;verticalAlign=middle;whiteSpace=wrap;rounded=0;fontColor=#FFFFFF;" vertex="1" parent="1">
          <mxGeometry x="305" y="1760" width="100" height="30" as="geometry" />
        </mxCell>
        <mxCell id="vAaktajzuPDgQjhJXwkO-70" value="&lt;b&gt;&lt;font style=&quot;font-size: 17px;&quot;&gt;UserName&amp;nbsp;&lt;/font&gt;&lt;/b&gt;" style="text;html=1;strokeColor=none;fillColor=none;align=center;verticalAlign=middle;whiteSpace=wrap;rounded=0;fontColor=#FFFFFF;" vertex="1" parent="1">
          <mxGeometry x="290" y="1910" width="165" height="30" as="geometry" />
        </mxCell>
        <mxCell id="vAaktajzuPDgQjhJXwkO-71" value="&lt;b&gt;&lt;font style=&quot;font-size: 16px;&quot;&gt;Edit&lt;/font&gt;&lt;/b&gt;" style="text;html=1;strokeColor=none;fillColor=none;align=center;verticalAlign=middle;whiteSpace=wrap;rounded=0;fontColor=#FFFFFF;" vertex="1" parent="1">
          <mxGeometry x="440.5" y="1910" width="60" height="30" as="geometry" />
        </mxCell>
        <mxCell id="vAaktajzuPDgQjhJXwkO-72" value="&lt;b&gt;&lt;font style=&quot;font-size: 17px;&quot;&gt;Delete&lt;/font&gt;&lt;/b&gt;" style="text;html=1;strokeColor=none;fillColor=none;align=center;verticalAlign=middle;whiteSpace=wrap;rounded=0;fontColor=#FFFFFF;" vertex="1" parent="1">
          <mxGeometry x="505" y="1910" width="60" height="30" as="geometry" />
        </mxCell>
        <mxCell id="vAaktajzuPDgQjhJXwkO-83" style="edgeStyle=orthogonalEdgeStyle;rounded=0;orthogonalLoop=1;jettySize=auto;html=1;exitX=0.5;exitY=1;exitDx=0;exitDy=0;entryX=0.5;entryY=1;entryDx=0;entryDy=0;" edge="1" parent="1" source="vAaktajzuPDgQjhJXwkO-77" target="vAaktajzuPDgQjhJXwkO-64">
          <mxGeometry relative="1" as="geometry" />
        </mxCell>
        <mxCell id="vAaktajzuPDgQjhJXwkO-84" style="edgeStyle=orthogonalEdgeStyle;rounded=0;orthogonalLoop=1;jettySize=auto;html=1;exitX=0.75;exitY=0;exitDx=0;exitDy=0;" edge="1" parent="1" source="vAaktajzuPDgQjhJXwkO-77" target="vAaktajzuPDgQjhJXwkO-64">
          <mxGeometry relative="1" as="geometry" />
        </mxCell>
        <mxCell id="vAaktajzuPDgQjhJXwkO-77" value="" style="rounded=0;whiteSpace=wrap;html=1;strokeColor=#FFFFFF;fillColor=none;" vertex="1" parent="1">
          <mxGeometry x="440.5" y="1715" width="60" height="20" as="geometry" />
        </mxCell>
        <mxCell id="vAaktajzuPDgQjhJXwkO-82" style="edgeStyle=orthogonalEdgeStyle;rounded=0;orthogonalLoop=1;jettySize=auto;html=1;exitX=0.5;exitY=1;exitDx=0;exitDy=0;entryX=0.25;entryY=1;entryDx=0;entryDy=0;" edge="1" parent="1" source="vAaktajzuPDgQjhJXwkO-80" target="vAaktajzuPDgQjhJXwkO-65">
          <mxGeometry relative="1" as="geometry" />
        </mxCell>
        <mxCell id="vAaktajzuPDgQjhJXwkO-80" value="" style="rounded=0;whiteSpace=wrap;html=1;strokeColor=#FFFFFF;fillColor=none;" vertex="1" parent="1">
          <mxGeometry x="505" y="1715" width="60" height="20" as="geometry" />
        </mxCell>
        <mxCell id="vAaktajzuPDgQjhJXwkO-81" style="edgeStyle=orthogonalEdgeStyle;rounded=0;orthogonalLoop=1;jettySize=auto;html=1;entryX=1;entryY=0.5;entryDx=0;entryDy=0;" edge="1" parent="1" target="vAaktajzuPDgQjhJXwkO-80">
          <mxGeometry relative="1" as="geometry">
            <mxPoint x="520" y="1760" as="sourcePoint" />
          </mxGeometry>
        </mxCell>
        <mxCell id="vAaktajzuPDgQjhJXwkO-85" value="" style="rounded=0;whiteSpace=wrap;html=1;strokeColor=#FFFFFF;fillColor=none;" vertex="1" parent="1">
          <mxGeometry x="438.75" y="1915" width="60" height="20" as="geometry" />
        </mxCell>
        <mxCell id="vAaktajzuPDgQjhJXwkO-86" value="" style="rounded=0;whiteSpace=wrap;html=1;strokeColor=#FFFFFF;fillColor=none;" vertex="1" parent="1">
          <mxGeometry x="505" y="1915" width="60" height="20" as="geometry" />
        </mxCell>
        <mxCell id="vAaktajzuPDgQjhJXwkO-87" value="&lt;b&gt;Date:&lt;/b&gt;" style="text;html=1;strokeColor=none;fillColor=none;align=center;verticalAlign=middle;whiteSpace=wrap;rounded=0;fontColor=#FFFFFF;" vertex="1" parent="1">
          <mxGeometry x="309.75" y="1950" width="100" height="30" as="geometry" />
        </mxCell>
        <mxCell id="vAaktajzuPDgQjhJXwkO-88" value="&lt;b&gt;Note Title:&lt;/b&gt;" style="text;html=1;strokeColor=none;fillColor=none;align=center;verticalAlign=middle;whiteSpace=wrap;rounded=0;fontColor=#FFFFFF;" vertex="1" parent="1">
          <mxGeometry x="290" y="1990" width="165" height="30" as="geometry" />
        </mxCell>
      </root>
    </mxGraphModel>
  </diagram>
</mxfile>
